HIERARCHY
ROOT Root
{
  OFFSET 0.0 0.0 0.0
  CHANNELS 6 Xposition Yposition Zposition Zrotation Yrotation Xrotation
  JOINT Hips
  {
    OFFSET 0.0 100.0 0.0
    CHANNELS 6 Xposition Yposition Zposition Zrotation Yrotation Xrotation
    JOINT Spine1
    {
      OFFSET 5.003913 -0.037094 -0.013727
      CHANNELS 3 Zrotation Yrotation Xrotation
      JOINT Spine2
      {
        OFFSET 7.125363 -1e-06 0.0
        CHANNELS 3 Zrotation Yrotation Xrotation
        JOINT Chest
        {
          OFFSET 7.594027 1e-06 0.0
          CHANNELS 3 Zrotation Yrotation Xrotation
          JOINT Neck1
          {
            OFFSET 26.313086 -0.460272 -0.181672
            CHANNELS 3 Zrotation Yrotation Xrotation
            JOINT Neck2
            {
              OFFSET 8.045911 0.0 0.0
              CHANNELS 3 Zrotation Yrotation Xrotation
              JOINT Head
              {
                OFFSET 6.432774 0.0 0.0
                CHANNELS 3 Zrotation Yrotation Xrotation
                JOINT HeadEnd
                {
                  OFFSET 16.169773 0.06451 0.00362
                  CHANNELS 3 Zrotation Yrotation Xrotation
                }
                JOINT Jaw
                {
                  OFFSET 0.108741 3.12938 0.002639
                  CHANNELS 3 Zrotation Yrotation Xrotation
                }
                JOINT LeftEye
                {
                  OFFSET 4.45173 8.166359 3.206392
                  CHANNELS 3 Zrotation Yrotation Xrotation
                }
                JOINT RightEye
                {
                  OFFSET 4.436895 8.135758 -3.222429
                  CHANNELS 3 Zrotation Yrotation Xrotation
                }
              }
            }
          }
          JOINT LeftShoulder
          {
            OFFSET 23.218927 5.195579 1.621656
            CHANNELS 3 Zrotation Yrotation Xrotation
            JOINT LeftArm
            {
              OFFSET 15.902118 2e-06 -2e-06
              CHANNELS 3 Zrotation Yrotation Xrotation
              JOINT LeftForeArm
              {
                OFFSET 28.739307 0.0 -1e-06
                CHANNELS 3 Zrotation Yrotation Xrotation
                JOINT LeftHand
                {
                  OFFSET 27.093981 -4e-06 0.0
                  CHANNELS 3 Zrotation Yrotation Xrotation
                  JOINT LeftHandThumb1
                  {
                    OFFSET 2.276781 3.380274 0.83384
                    CHANNELS 3 Zrotation Yrotation Xrotation
                    JOINT LeftHandThumb2
                    {
                      OFFSET 4.705309 -1e-06 -1e-06
                      CHANNELS 3 Zrotation Yrotation Xrotation
                      JOINT LeftHandThumb3
                      {
                        OFFSET 2.798515 0.0 3e-06
                        CHANNELS 3 Zrotation Yrotation Xrotation
                        JOINT LeftHandThumbEnd
                        {
                          OFFSET 3.180793 4e-06 -4e-06
                          CHANNELS 3 Zrotation Yrotation Xrotation
                        }
                      }
                    }
                  }
                  JOINT LeftHandIndex1
                  {
                    OFFSET 3.247786 2.352677 0.137192
                    CHANNELS 3 Zrotation Yrotation Xrotation
                    JOINT LeftHandIndex2
                    {
                      OFFSET 6.367095 1e-06 0.0
                      CHANNELS 3 Zrotation Yrotation Xrotation
                      JOINT LeftHandIndex3
                      {
                        OFFSET 3.662364 0.0 0.0
                        CHANNELS 3 Zrotation Yrotation Xrotation
                        JOINT LeftHandIndex4
                        {
                          OFFSET 2.329242 4e-06 -4e-06
                          CHANNELS 3 Zrotation Yrotation Xrotation
                          JOINT LeftHandIndexEnd
                          {
                            OFFSET 2.767823 1e-06 0.0
                            CHANNELS 3 Zrotation Yrotation Xrotation
                          }
                        }
                      }
                    }
                  }
                  JOINT LeftHandMiddle1
                  {
                    OFFSET 3.163612 0.945023 -0.406112
                    CHANNELS 3 Zrotation Yrotation Xrotation
                    JOINT LeftHandMiddle2
                    {
                      OFFSET 6.276789 3e-06 0.0
                      CHANNELS 3 Zrotation Yrotation Xrotation
                      JOINT LeftHandMiddle3
                      {
                        OFFSET 4.35652 -1e-06 4e-06
                        CHANNELS 3 Zrotation Yrotation Xrotation
                        JOINT LeftHandMiddle4
                        {
                          OFFSET 2.996877 0.0 8e-06
                          CHANNELS 3 Zrotation Yrotation Xrotation
                          JOINT LeftHandMiddleEnd
                          {
                            OFFSET 2.323256 3e-06 -4e-06
                            CHANNELS 3 Zrotation Yrotation Xrotation
                          }
                        }
                      }
                    }
                  }
                  JOINT LeftHandRing1
                  {
                    OFFSET 2.882606 -0.309162 0.107445
                    CHANNELS 3 Zrotation Yrotation Xrotation
                    JOINT LeftHandRing2
                    {
                      OFFSET 6.033198 0.0 4e-06
                      CHANNELS 3 Zrotation Yrotation Xrotation
                      JOINT LeftHandRing3
                      {
                        OFFSET 4.350578 3e-06 0.0
                        CHANNELS 3 Zrotation Yrotation Xrotation
                        JOINT LeftHandRing4
                        {
                          OFFSET 2.651321 2e-06 -7e-06
                          CHANNELS 3 Zrotation Yrotation Xrotation
                          JOINT LeftHandRingEnd
                          {
                            OFFSET 1.937663 1e-06 -4e-06
                            CHANNELS 3 Zrotation Yrotation Xrotation
                          }
                        }
                      }
                    }
                  }
                  JOINT LeftHandPinky1
                  {
                    OFFSET 2.865315 -1.525436 0.575687
                    CHANNELS 3 Zrotation Yrotation Xrotation
                    JOINT LeftHandPinky2
                    {
                      OFFSET 5.54936 1e-06 -8e-06
                      CHANNELS 3 Zrotation Yrotation Xrotation
                      JOINT LeftHandPinky3
                      {
                        OFFSET 3.070974 0.0 -4e-06
                        CHANNELS 3 Zrotation Yrotation Xrotation
                        JOINT LeftHandPinky4
                        {
                          OFFSET 1.549672 1e-06 0.0
                          CHANNELS 3 Zrotation Yrotation Xrotation
                          JOINT LeftHandPinkyEnd
                          {
                            OFFSET 1.952123 0.0 0.0
                            CHANNELS 3 Zrotation Yrotation Xrotation
                          }
                        }
                      }
                    }
                  }
                }
              }
            }
          }
          JOINT RightShoulder
          {
            OFFSET 23.161716 5.296122 -1.380114
            CHANNELS 3 Zrotation Yrotation Xrotation
            JOINT RightArm
            {
              OFFSET -16.027195 -2e-06 1.1e-05
              CHANNELS 3 Zrotation Yrotation Xrotation
              JOINT RightForeArm
              {
                OFFSET -28.736639 4e-06 2e-06
                CHANNELS 3 Zrotation Yrotation Xrotation
                JOINT RightHand
                {
                  OFFSET -27.133619 6e-06 0.0
                  CHANNELS 3 Zrotation Yrotation Xrotation
                  JOINT RightHandThumb1
                  {
                    OFFSET -2.274328 -3.351035 -0.83067
                    CHANNELS 3 Zrotation Yrotation Xrotation
                    JOINT RightHandThumb2
                    {
                      OFFSET -4.703594 -3e-06 2e-06
                      CHANNELS 3 Zrotation Yrotation Xrotation
                      JOINT RightHandThumb3
                      {
                        OFFSET -2.794935 -4e-06 -3e-06
                        CHANNELS 3 Zrotation Yrotation Xrotation
                        JOINT RightHandThumbEnd
                        {
                          OFFSET -3.183852 4e-06 1e-06
                          CHANNELS 3 Zrotation Yrotation Xrotation
                        }
                      }
                    }
                  }
                  JOINT RightHandIndex1
                  {
                    OFFSET -3.253496 -2.33755 -0.127667
                    CHANNELS 3 Zrotation Yrotation Xrotation
                    JOINT RightHandIndex2
                    {
                      OFFSET -6.344434 0.0 0.0
                      CHANNELS 3 Zrotation Yrotation Xrotation
                      JOINT RightHandIndex3
                      {
                        OFFSET -3.654871 0.0 -8e-06
                        CHANNELS 3 Zrotation Yrotation Xrotation
                        JOINT RightHandIndex4
                        {
                          OFFSET -2.327586 -1e-06 0.0
                          CHANNELS 3 Zrotation Yrotation Xrotation
                          JOINT RightHandIndexEnd
                          {
                            OFFSET -2.770001 3e-06 8e-06
                            CHANNELS 3 Zrotation Yrotation Xrotation
                          }
                        }
                      }
                    }
                  }
                  JOINT RightHandMiddle1
                  {
                    OFFSET -3.168223 -0.944764 0.411762
                    CHANNELS 3 Zrotation Yrotation Xrotation
                    JOINT RightHandMiddle2
                    {
                      OFFSET -6.266691 -1e-06 -4e-06
                      CHANNELS 3 Zrotation Yrotation Xrotation
                      JOINT RightHandMiddle3
                      {
                        OFFSET -4.348901 0.0 0.0
                        CHANNELS 3 Zrotation Yrotation Xrotation
                        JOINT RightHandMiddle4
                        {
                          OFFSET -3.00024 2e-06 -4e-06
                          CHANNELS 3 Zrotation Yrotation Xrotation
                          JOINT RightHandMiddleEnd
                          {
                            OFFSET -2.321477 -4e-06 -4e-06
                            CHANNELS 3 Zrotation Yrotation Xrotation
                          }
                        }
                      }
                    }
                  }
                  JOINT RightHandRing1
                  {
                    OFFSET -2.885654 0.293261 -0.119232
                    CHANNELS 3 Zrotation Yrotation Xrotation
                    JOINT RightHandRing2
                    {
                      OFFSET -6.032835 -1e-06 -4e-06
                      CHANNELS 3 Zrotation Yrotation Xrotation
                      JOINT RightHandRing3
                      {
                        OFFSET -4.33881 0.0 -4e-06
                        CHANNELS 3 Zrotation Yrotation Xrotation
                        JOINT RightHandRing4
                        {
                          OFFSET -2.654903 -4e-06 -4e-06
                          CHANNELS 3 Zrotation Yrotation Xrotation
                          JOINT RightHandRingEnd
                          {
                            OFFSET -1.935122 0.0 4e-06
                            CHANNELS 3 Zrotation Yrotation Xrotation
                          }
                        }
                      }
                    }
                  }
                  JOINT RightHandPinky1
                  {
                    OFFSET -2.866241 1.503904 -0.60527
                    CHANNELS 3 Zrotation Yrotation Xrotation
                    JOINT RightHandPinky2
                    {
                      OFFSET -5.553177 -2e-06 0.0
                      CHANNELS 3 Zrotation Yrotation Xrotation
                      JOINT RightHandPinky3
                      {
                        OFFSET -3.062664 -1e-06 -4e-06
                        CHANNELS 3 Zrotation Yrotation Xrotation
                        JOINT RightHandPinky4
                        {
                          OFFSET -1.546529 2e-06 4e-06
                          CHANNELS 3 Zrotation Yrotation Xrotation
                          JOINT RightHandPinkyEnd
                          {
                            OFFSET -1.952341 0.0 -4e-06
                            CHANNELS 3 Zrotation Yrotation Xrotation
                          }
                        }
                      }
                    }
                  }
                }
              }
            }
          }
        }
      }
    }
    JOINT LeftLeg
    {
      OFFSET -8.443107 2.567604 10.043214
      CHANNELS 3 Zrotation Yrotation Xrotation
      JOINT LeftShin
      {
        OFFSET 43.229198 1e-06 -1e-06
        CHANNELS 3 Zrotation Yrotation Xrotation
        JOINT LeftFoot
        {
          OFFSET 42.298611 1e-06 1e-06
          CHANNELS 3 Zrotation Yrotation Xrotation
          JOINT LeftToeBase
          {
            OFFSET 14.165858 1e-06 0.0
            CHANNELS 3 Zrotation Yrotation Xrotation
            JOINT LeftToeEnd
            {
              OFFSET 6.7141 -0.234461 0.0
              CHANNELS 3 Zrotation Yrotation Xrotation
            }
          }
        }
      }
    }
    JOINT RightLeg
    {
      OFFSET -8.303923 2.592729 -10.047278
      CHANNELS 3 Zrotation Yrotation Xrotation
      JOINT RightShin
      {
        OFFSET -43.369682 0.0 1e-06
        CHANNELS 3 Zrotation Yrotation Xrotation
        JOINT RightFoot
        {
          OFFSET -42.260784 4e-06 2e-06
          CHANNELS 3 Zrotation Yrotation Xrotation
          JOINT RightToeBase
          {
            OFFSET -14.222245 -2e-06 -1e-06
            CHANNELS 3 Zrotation Yrotation Xrotation
            JOINT RightToeEnd
            {
              OFFSET -6.660062 0.232574 -2e-06
              CHANNELS 3 Zrotation Yrotation Xrotation
            }
          }
        }
      }
    }
  }
}
MOTION
Frames: 4
Frame Time: 0.03333333333333333
0.0 0.0 0.0 0.0 -0.0 0.0 -2.294168 99.965355 -4.020443 91.052071 2.594267 90.608345 -3.498194 -0.417341 0.220387 -12.270749 -0.313287 -0.382285 16.748755 1.469628 -2.058618 30.416653 -3.207113 2.67182 -2.637126 -0.539959 -0.187484 -33.421875 0.647519 -0.934905 6e-06 0.0 -0.0 0.053996 0.016553 -0.009493 0.05445 0.000579 -0.013691 0.079183 0.029878 0.003869 -148.246094 -62.86031 167.032837 32.783058 -43.854065 13.254731 26.805059 0.03904 0.083317 -6.620329 -4.271011 3.142717 17.636627 -26.322733 52.411198 -19.466658 -14.395597 29.410389 -1e-06 -8.774821 -2e-06 16.481874 -17.833134 5.6914 -0.609776 -1.795654 -3.889325 -4.807087 -11.046811 -2.937853 6e-06 -20.976017 0.0 -5.019971 -25.03356 -4.031878 5e-06 0.0 1e-06 -10.634533 -5.68697 -3.565588 10.573274 -17.922947 -3.1139 4e-06 -13.821205 -0.0 -0.501775 -31.181498 -4.027017 -11.139973 -59.811844 6.648716 -13.982714 -7.150198 -2.875042 13.77273 -8.40149 -3.218245 0.347734 -34.211552 0.771658 -0.96303 -17.733366 2.621019 -0.0 -0.0 1e-06 -17.346416 -20.095217 -4.201783 21.757557 -1.638376 3.866428 1e-06 -6.338823 2e-06 -1.697589 -22.591742 -6.194004 -2e-06 -2e-06 -2e-06 42.323933 -75.649246 155.304977 46.237968 -52.527283 24.183729 17.673281 -0.111712 -0.080902 0.566013 6.776418 3.559832 22.18211 -20.375891 49.933323 -16.701809 -16.743525 28.47653 -2e-06 -12.690598 -1e-06 16.162413 -17.610104 2.580333 -0.10592 -1.513857 -4.275879 -5.03904 -5.612872 -2.953557 4e-06 -11.020521 -3e-06 -6.111297 -15.89533 -3.840469 -0.0 -1e-06 2e-06 -10.283368 -5.680287 -4.341838 11.028291 -11.302403 -2.372629 -1.384268 -14.238577 -6.320125 -0.625439 -26.924183 -3.827602 -4.641872 -49.773796 -3.62846 -13.708522 -7.363477 -3.720941 18.141148 -14.052736 -3.242675 6e-06 -18.787266 -4e-06 -0.429711 -8.45604 2.555503 -0.0 -1e-06 -0.0 -15.923532 -20.094482 -5.473587 30.419207 -7.190824 1.735927 2e-06 -8.162922 -1e-06 -1.861902 -22.861464 -6.167942 -2e-06 -3e-06 -1e-06 178.284393 -1.412797 -17.488119 14.42635 -0.020846 0.186565 -78.686615 -1.459443 -3.951615 -4.855468 1.447492 2.093594 -1.0 1e-06 0.0 0.541367 -5.634661 -8.700031 14.144794 -0.003421 0.099053 -80.842354 7.788857 -3.809261 -4.815645 0.72365 1.695069 -1.000001 0.0 -0.0 
0.0 0.0 0.0 0.0 -0.0 0.0 -2.202893 99.998657 -4.016671 91.093124 2.610703 90.58342 -3.465199 -0.469158 0.193474 -12.254749 -0.288311 -0.312743 16.749289 1.480149 -2.076065 30.463272 -3.225482 2.630868 -2.621921 -0.514724 -0.173458 -33.515213 0.606357 -0.955776 6e-06 0.0 -0.0 0.051877 0.016184 0.016749 0.061978 -0.000732 0.015688 0.082076 0.030692 0.026985 -148.225662 -62.923023 167.087982 32.903591 -43.795902 13.123742 26.892483 -0.06545 0.04201 -6.672621 -4.373971 3.234007 17.636625 -26.322731 52.411182 -19.46666 -14.395597 29.410385 -1e-06 -8.774821 -3e-06 16.468267 -17.801876 5.680936 -0.609776 -1.795653 -3.889327 -4.807088 -11.046808 -2.937852 6e-06 -20.976015 -1e-06 -5.01997 -25.033554 -4.031878 6e-06 -1e-06 1e-06 -10.634533 -5.68697 -3.565585 10.573275 -17.922949 -3.113904 4e-06 -13.821209 -0.0 -0.501776 -31.181505 -4.027016 -11.126354 -59.783737 6.722747 -13.982713 -7.150198 -2.875044 13.77273 -8.401491 -3.218241 0.347734 -34.211544 0.771658 -0.963028 -17.733366 2.621021 0.0 -1e-06 2e-06 -17.346418 -20.095215 -4.201779 21.757557 -1.638375 3.866427 1e-06 -6.338822 2e-06 -1.69759 -22.591743 -6.194003 0.0 -2e-06 -1e-06 42.639671 -75.681 155.047653 46.171513 -52.507282 24.098021 17.710112 -0.114648 -0.095651 0.630444 6.753409 3.628566 22.182114 -20.375898 49.933311 -16.701811 -16.743528 28.476528 -3e-06 -12.6906 -0.0 16.149744 -17.599741 2.576925 -0.10592 -1.513857 -4.275882 -5.03904 -5.612871 -2.953557 3e-06 -11.020523 -2e-06 -6.111297 -15.895332 -3.84047 -0.0 -0.0 -0.0 -10.283367 -5.680287 -4.341837 11.028291 -11.302404 -2.372631 -1.384267 -14.238578 -6.320123 -0.62544 -26.924187 -3.827599 -4.692758 -49.851929 -3.583766 -13.708521 -7.363474 -3.720939 18.141146 -14.052736 -3.242673 6e-06 -18.787266 -3e-06 -0.429711 -8.456041 2.555502 0.0 -1e-06 -2e-06 -15.923532 -20.094482 -5.473584 30.41921 -7.190824 1.735924 2e-06 -8.162922 -2e-06 -1.861903 -22.861467 -6.16794 -1e-06 -2e-06 -1e-06 178.522583 -1.224698 -17.372444 13.964128 -0.012738 0.224663 -78.486046 -1.568027 -4.008616 -4.887583 1.461897 2.104455 -1.0 -0.0 0.0 0.734674 -5.701734 -8.606523 13.776108 -0.00642 0.104971 -80.657028 7.640731 -3.822902 -4.844465 0.702035 1.696247 -1.000002 0.0 0.0 
0.0 0.0 0.0 0.0 -0.0 0.0 -2.083839 100.009605 -4.063311 91.15274 2.618036 90.568985 -3.455151 -0.513935 0.178246 -12.258472 -0.277131 -0.277925 16.799223 1.475513 -2.066915 30.533306 -3.246723 2.616414 -2.637087 -0.488826 -0.211157 -33.537045 0.575087 -0.994132 6e-06 0.0 -0.0 0.050407 0.016547 0.031109 0.050222 -0.002738 0.032039 0.068 0.033509 0.038919 -148.228653 -62.974384 167.115723 32.956146 -43.733269 13.068252 27.035004 -0.157797 0.006494 -6.79089 -4.512857 3.218777 17.636623 -26.322721 52.411179 -19.466656 -14.395594 29.410378 -0.0 -8.774819 -3e-06 16.485653 -17.822964 5.677002 -0.609777 -1.795654 -3.889328 -4.807088 -11.046807 -2.937851 4e-06 -20.976011 -0.0 -5.019972 -25.033554 -4.031879 5e-06 1e-06 -1e-06 -10.634532 -5.686969 -3.565587 10.573271 -17.922945 -3.113901 2e-06 -13.821204 -1e-06 -0.501779 -31.181494 -4.027016 -11.190579 -59.766354 6.760088 -13.982712 -7.150197 -2.875042 13.772725 -8.401489 -3.218239 0.347734 -34.211544 0.771655 -0.963029 -17.733368 2.621017 1e-06 1e-06 1e-06 -17.346413 -20.095213 -4.20178 21.757555 -1.638374 3.866425 0.0 -6.338821 2e-06 -1.697591 -22.59174 -6.194003 -1e-06 -3e-06 -2e-06 42.90361 -75.734688 154.813538 46.141449 -52.518169 24.055565 17.702801 -0.138356 -0.104095 0.651568 6.821332 3.787516 22.182112 -20.375887 49.933315 -16.701811 -16.743528 28.476528 -2e-06 -12.690599 -2e-06 16.130554 -17.556391 2.593944 -0.10592 -1.513855 -4.275879 -5.039041 -5.612872 -2.953556 3e-06 -11.020523 -2e-06 -6.111298 -15.89533 -3.840472 -0.0 -0.0 0.0 -10.283369 -5.680288 -4.341838 11.028294 -11.302404 -2.372633 -1.384268 -14.238579 -6.320125 -0.625438 -26.924187 -3.827601 -4.740837 -49.8638 -3.548538 -13.708524 -7.363475 -3.720941 18.141146 -14.052739 -3.242673 5e-06 -18.787268 -4e-06 -0.429711 -8.456042 2.555503 1e-06 -1e-06 -0.0 -15.923536 -20.094482 -5.473584 30.41921 -7.190824 1.735927 2e-06 -8.162922 -1e-06 -1.861901 -22.861467 -6.167945 -1e-06 -2e-06 0.0 178.605972 -1.033818 -17.285835 13.737113 -0.011942 0.244978 -78.375633 -1.646847 -4.001884 -4.863048 1.464269 2.111431 -0.999999 -0.0 -0.0 0.735286 -5.835485 -8.508758 13.720394 -0.002427 0.09984 -80.593719 7.499835 -3.882898 -4.850832 0.690703 1.695947 -1.000001 -0.0 0.0 
0.0 0.0 0.0 0.0 -0.0 0.0 -2.002012 100.014702 -4.096282 91.201706 2.619888 90.561432 -3.447789 -0.547834 0.171904 -12.268833 -0.267326 -0.26432 16.855701 1.466758 -2.038471 30.614302 -3.263581 2.603049 -2.659131 -0.483956 -0.233926 -33.568348 0.561731 -1.029397 6e-06 -0.0 -0.0 0.049127 0.016337 0.034788 0.033547 -0.004142 0.036687 0.049131 0.034623 0.041146 -148.236496 -63.030312 167.117935 32.996964 -43.695572 13.048851 27.177439 -0.205849 -0.011898 -6.876563 -4.598315 3.250113 17.636627 -26.322733 52.411205 -19.46666 -14.395597 29.410389 -0.0 -8.774822 -3e-06 16.484241 -17.825853 5.679396 -0.609778 -1.795654 -3.889332 -4.80709 -11.046811 -2.93785 4e-06 -20.976019 -1e-06 -5.01997 -25.033556 -4.031883 6e-06 1e-06 -1e-06 -10.634536 -5.686972 -3.565591 10.573275 -17.922951 -3.113901 3e-06 -13.821209 -1e-06 -0.501776 -31.181501 -4.027019 -11.236567 -59.75441 6.770619 -13.982716 -7.150198 -2.875041 13.772732 -8.401491 -3.218243 0.347734 -34.211555 0.771656 -0.963029 -17.73337 2.621021 -1e-06 -1e-06 1e-06 -17.34642 -20.095217 -4.201782 21.757557 -1.638375 3.866426 1e-06 -6.338822 1e-06 -1.697589 -22.591742 -6.194006 -1e-06 -4e-06 -2e-06 43.144245 -75.78727 154.585709 46.14254 -52.538761 24.156229 17.674959 -0.129796 -0.099365 0.662654 6.862075 3.923611 22.182108 -20.375895 49.933327 -16.701813 -16.743525 28.476536 -3e-06 -12.690599 -1e-06 16.096495 -17.514849 2.622074 -0.10592 -1.513858 -4.27588 -5.039039 -5.612872 -2.95356 4e-06 -11.020525 -2e-06 -6.111297 -15.895334 -3.840474 -0.0 -1e-06 1e-06 -10.283369 -5.680291 -4.34184 11.028292 -11.302406 -2.372633 -1.384267 -14.238581 -6.320128 -0.62544 -26.924191 -3.827601 -4.796378 -49.835224 -3.499059 -13.708522 -7.363479 -3.720943 18.141146 -14.052739 -3.242674 6e-06 -18.78727 -4e-06 -0.429711 -8.456046 2.555504 -0.0 1e-06 -0.0 -15.923534 -20.094486 -5.473589 30.41921 -7.190824 1.735927 2e-06 -8.162926 -2e-06 -1.861902 -22.861475 -6.167944 -3e-06 -0.0 0.0 178.654724 -0.896922 -17.248512 13.591311 -0.014124 0.251605 -78.303848 -1.689979 -3.993451 -4.852419 1.461419 2.113214 -0.999999 1e-06 0.0 0.710842 -5.939718 -8.440409 13.725905 0.000826 0.08333 -80.57003 7.389669 -3.924934 -4.863133 0.677307 1.692273 -1.000003 -0.0 -0.0 
